<svg width="198" height="198" viewBox="0 0 198 198" fill="none" xmlns="http://www.w3.org/2000/svg">
<rect width="198" height="198" fill="#1E1E1E"/>
<rect width="198" height="198" fill="#F3F4F6"/>
<rect x="16" y="16" width="166" height="166" rx="25" fill="#F3A26D"/>
<path d="M93.9369 36.4452C96.9922 34.3662 101.008 34.3662 104.063 36.4452L147.584 66.0592C154.91 71.0439 151.382 82.5 142.521 82.5H55.4786C46.618 82.5 43.09 71.0439 50.4156 66.0592L93.9369 36.4452Z" fill="#F3F4F6"/>
<rect x="47" y="141" width="105" height="13" rx="6.5" fill="#F3F4F6"/>
<rect width="53" height="10" rx="5" transform="matrix(0 1 1 0 52 85)" fill="#F3F4F6"/>
<rect width="53" height="10" rx="5" transform="matrix(0 1 1 0 136 85)" fill="#F3F4F6"/>
<rect width="53" height="10" rx="5" transform="matrix(0 1 1 0 108 85)" fill="#F3F4F6"/>
<rect width="53" height="10" rx="5" transform="matrix(0 1 1 0 66 85)" fill="#F3F4F6"/>
<rect width="53" height="10" rx="5" transform="matrix(0 1 1 0 122 85)" fill="#F3F4F6"/>
<rect width="53" height="10" rx="5" transform="matrix(0 1 1 0 94 85)" fill="#F3F4F6"/>
<rect width="53" height="10" rx="5" transform="matrix(0 1 1 0 80 85)" fill="#F3F4F6"/>
</svg>
